<svg xmlns="http://www.w3.org/2000/svg" viewBox="0 0 32 32">
  <defs>
    <linearGradient id="d365svc-bg" x1="0" y1="0" x2="1" y2="1">
      <stop offset="0%" stop-color="#2B7FD4"/>
      <stop offset="100%" stop-color="#002050"/>
    </linearGradient>
  </defs>
  <rect width="32" height="32" rx="7" fill="url(#d365svc-bg)"/>
  <!-- headset icon -->
  <path d="M16 7 C10.5 7 6 11.5 6 17 L6 19 C6 20.1 6.9 21 8 21 L10 21 L10 16 L8.1 16 C8.6 12.1 11.9 9 16 9 C20.1 9 23.4 12.1 23.9 16 L22 16 L22 21 L22 22 C22 23.1 21.1 24 20 24 L18 24 L18 23 L16 23 L16 25 L20 25 C22.2 25 24 23.2 24 21 L24 17 C24 11.5 19.5 7 16 7Z" fill="white" opacity="0.95"/>
</svg>
