<svg xmlns="http://www.w3.org/2000/svg" width="1200" height="630" viewBox="0 0 1200 630">
  <defs>
    <linearGradient id="bg" x1="0" y1="0" x2="1" y2="1">
      <stop offset="0%" stop-color="#f0f6ff"/>
      <stop offset="100%" stop-color="#dbeafe"/>
    </linearGradient>
    <linearGradient id="accent" x1="0" y1="0" x2="1" y2="0">
      <stop offset="0%" stop-color="#0078d4"/>
      <stop offset="100%" stop-color="#106ebe"/>
    </linearGradient>
  </defs>
  <!-- Background -->
  <rect width="1200" height="630" fill="url(#bg)"/>
  <!-- Accent bar -->
  <rect x="80" y="80" width="6" height="120" rx="3" fill="url(#accent)"/>
  <!-- Brand grid icon -->
  <rect x="96" y="80" width="28" height="28" rx="4" fill="#0078d4" opacity=".18"/>
  <rect x="130" y="80" width="28" height="28" rx="4" fill="#0078d4" opacity=".18"/>
  <rect x="96" y="114" width="28" height="28" rx="4" fill="#0078d4" opacity=".18"/>
  <rect x="130" y="114" width="28" height="28" rx="4" fill="#0078d4" opacity=".18"/>
  <!-- Name -->
  <text x="80" y="240" font-family="Segoe UI, system-ui, sans-serif" font-size="72" font-weight="800" fill="#1a1a1a" letter-spacing="-2">Abdul Basit</text>
  <!-- Title -->
  <text x="82" y="300" font-family="Segoe UI, system-ui, sans-serif" font-size="30" font-weight="500" fill="#0078d4">Power Platform Architect  ·  D365 CE  ·  Copilot Studio</text>
  <!-- Tags -->
  <rect x="82" y="340" width="210" height="42" rx="21" fill="#0078d4" opacity=".1"/>
  <text x="187" y="368" font-family="Segoe UI, system-ui, sans-serif" font-size="18" font-weight="700" fill="#0078d4" text-anchor="middle">PL-600 Certified</text>
  <rect x="306" y="340" width="200" height="42" rx="21" fill="#0078d4" opacity=".1"/>
  <text x="406" y="368" font-family="Segoe UI, system-ui, sans-serif" font-size="18" font-weight="700" fill="#0078d4" text-anchor="middle">@PowerDynamite</text>
  <rect x="520" y="340" width="230" height="42" rx="21" fill="#0078d4" opacity=".1"/>
  <text x="635" y="368" font-family="Segoe UI, system-ui, sans-serif" font-size="18" font-weight="700" fill="#0078d4" text-anchor="middle">Available Globally</text>
  <!-- URL -->
  <text x="82" y="460" font-family="Segoe UI, system-ui, sans-serif" font-size="22" fill="#888">powerdynamite.github.io</text>
  <!-- Decorative dots -->
  <circle cx="950" cy="180" r="120" fill="#0078d4" opacity=".05"/>
  <circle cx="1100" cy="450" r="80" fill="#0078d4" opacity=".07"/>
  <circle cx="850" cy="500" r="40" fill="#0078d4" opacity=".09"/>
</svg>
